<svg xmlns="http://www.w3.org/2000/svg" width="34.987" height="46.649" viewBox="0 0 34.987 46.649">
    <path fill="#3d505d" d="M33.033 21.639l-.55-11.527a11.057 11.057 0 0 0-3.525-7.191A10.935 10.935 0 0 0 21.494 0 11.108 11.108 0 0 0 10.5 10.14l-.548 11.5A10.926 10.926 0 0 0 4 31.343v10.2a5.108 5.108 0 0 0 5.1 5.1h24.785a5.108 5.108 0 0 0 5.1-5.1v-10.2a10.926 10.926 0 0 0-5.954-9.7zm-21.076-11.4a9.637 9.637 0 0 1 9.537-8.779 9.485 9.485 0 0 1 6.475 2.533 9.6 9.6 0 0 1 3.061 6.219L31.544 21a10.193 10.193 0 0 0-1.9-.462h-.029a.684.684 0 0 0-.1-.021h-.022a8.775 8.775 0 0 0-1.436-.109h-2.19v-2.186c0-.016-.008-.029-.009-.045a5.951 5.951 0 0 0 2.742-4.364l.584-5.233a.7.7 0 0 0-.015-.172v-.053l-.006-.013a.715.715 0 0 0-.1-.239l-.009-.017a.714.714 0 0 0-.417-.281c-.017 0-.033-.013-.051-.016s-.027-.012-.042-.013a.719.719 0 0 0-.177.014h-.056l-.059.009h-.005a5.762 5.762 0 0 1-5.926-2.476.744.744 0 0 0-.654-.323.728.728 0 0 0-.608.4 5.322 5.322 0 0 1-3.6 2.793 4.681 4.681 0 0 1-2.638-.357h-.022a1.128 1.128 0 0 0-.288-.051c-.024 0-.044-.008-.069-.006a.69.69 0 0 0-.128.041.577.577 0 0 0-.25.135c-.017.015-.035.027-.051.043a.711.711 0 0 0-.125.176c-.008.015-.021.024-.028.04s0 .016-.005.025a1.164 1.164 0 0 0-.051.289c0 .019-.007.037-.005.057l.584 5.235a5.951 5.951 0 0 0 2.745 4.363c0 .016-.009.029-.009.045v2.187h-2.186a8.624 8.624 0 0 0-1.439.108h-.018a.686.686 0 0 0-.085.017h-.01c-.031 0-.06.015-.092.019a.765.765 0 0 0-.1.021 10.421 10.421 0 0 0-1.746.42zM31.7 35.716a2.187 2.187 0 1 1-2.187-2.187 2.187 2.187 0 0 1 2.187 2.187zM21.486 13.849h.007a27.747 27.747 0 0 0 5.706-.607l-.046.408a4.489 4.489 0 0 1-2.232 3.4l-2.071 1.182a2.726 2.726 0 0 1-2.715 0l-2.073-1.182a4.489 4.489 0 0 1-2.229-3.4l-.045-.408a27.716 27.716 0 0 0 5.7.606zm-5.869-2.133l-.242-2.169a6.045 6.045 0 0 0 1.375.162 5.887 5.887 0 0 0 .947-.077 6.389 6.389 0 0 0 4.084-2.639 7.251 7.251 0 0 0 2.709 1.874 7.191 7.191 0 0 0 3.145.467l-.266 2.383a26.327 26.327 0 0 1-5.876.674 29.02 29.02 0 0 1-5.876-.675zm5.147 33.475H9.1a3.648 3.648 0 0 1-3.644-3.644v-10.2a9.476 9.476 0 0 1 5.508-8.594.62.62 0 0 0 .115-.068 8.844 8.844 0 0 1 1.666-.533v7.138a3.65 3.65 0 0 0-2.916 3.571v5.775a.728.728 0 0 0 .729.729h1.458a.729.729 0 1 0 0-1.458h-.729v-5.05a2.187 2.187 0 1 1 4.373 0V37.9h-.729a.729.729 0 0 0 0 1.458h1.458a.728.728 0 0 0 .729-.729v-5.772a3.65 3.65 0 0 0-2.918-3.571v-7.392c.224-.018.465-.028.729-.028h2.191v.2a2.191 2.191 0 0 0 .507 1.4l2.187 2.624a2.173 2.173 0 0 0 .951.648zm.729-19.771a.721.721 0 0 1-.561-.263l-2.185-2.623a.728.728 0 0 1-.169-.467V19.02l.833.475a4.186 4.186 0 0 0 4.164 0l.834-.476v3.048a.732.732 0 0 1-.168.466l-2.187 2.624a.721.721 0 0 1-.561.263zm16.036 16.127a3.648 3.648 0 0 1-3.644 3.644H22.222v-18.45a2.174 2.174 0 0 0 .951-.648l2.188-2.624a2.195 2.195 0 0 0 .505-1.4v-.2h2.187c.262 0 .5.009.729.028v10.248a3.644 3.644 0 1 0 1.458 0v-10a8.789 8.789 0 0 1 1.661.532.707.707 0 0 0 .12.069 9.476 9.476 0 0 1 5.508 8.594z" transform="translate(-4)"/>
</svg>
