<svg xmlns="http://www.w3.org/2000/svg" width="47" height="47" viewBox="0 0 47 47">
    <defs>
        <clipPath id="ep693y0rua">
            <path fill="none" d="M0 0H47V47H0z" transform="translate(0 -.017)"/>
        </clipPath>
    </defs>
    <g>
        <g>
            <g clip-path="url(#ep693y0rua)" transform="translate(-117 -241.873) translate(117 241.89)">
                <path fill="#304f6e" d="M161.985 270.863h-12.88a2.163 2.163 0 0 0-1.866 1.161l-.483.922v-2.562a7.014 7.014 0 0 0-3.264-5.945l-5.138-3.27a7.775 7.775 0 0 0 1.355-4.4v-8.614a6.272 6.272 0 0 0-6.264-6.264h-2.349a3.129 3.129 0 0 0-2.505 1.255 2.339 2.339 0 0 0-1.41-.472 3.136 3.136 0 0 0-3.132 3.132v10.963a7.787 7.787 0 0 0 1.358 4.4l-5.141 3.272a7.014 7.014 0 0 0-3.266 5.945v8.307a7.031 7.031 0 0 0 2.349 5.247v4.149a.783.783 0 0 0 .783.783h31.945a3.9 3.9 0 0 0 3.31-1.825l8.287-13.121a2 2 0 0 0-1.689-3.064zm-16.8-.477v5.552l-4.315 8.237h-.434a6.28 6.28 0 0 0-3.865-5.023v-7.506a.783.783 0 0 0-.783-.783h-1.908l3.81-8.255 4.956 3.154a5.457 5.457 0 0 1 2.539 4.624zm-16.314-22.326a4.3 4.3 0 0 0 3.394 1.66h5.873v7.048a6.264 6.264 0 1 1-12.529 0v-7.048h.134a3.78 3.78 0 0 0 3.128-1.66zm3 16.538a7.793 7.793 0 0 0 3.57-.859l-2.886 6.252-3.681-5.991a7.781 7.781 0 0 0 3 .6zm.783 9.4a.783.783 0 0 0 .783-.783v-.783h1.566v6.315a6.278 6.278 0 0 0-.783-.051 8.506 8.506 0 0 0-3.915.95v-7.214h1.566v.783a.783.783 0 0 0 .783.783zm-1.566-30.539h2.349a4.7 4.7 0 0 1 4.7 4.7h-5.873a2.743 2.743 0 0 1-2.741-2.741v-.392a1.568 1.568 0 0 1 1.566-1.566zm-3.915.783a.784.784 0 0 1 .783.783v.917a2.218 2.218 0 0 1-2.215 2.215h-.134v-2.349a1.568 1.568 0 0 1 1.566-1.566zm-6.073 21.52l5.041-3.208 5.113 8.309h-1.731a.783.783 0 0 0-.783.783v8.014l-1.969-1.181a.787.787 0 0 1-.38-.671v-6.161h-1.561v3.24h-6.264v-4.5a5.457 5.457 0 0 1 2.539-4.624zm-2.539 12.932v-2.242h6.264v1.355a2.362 2.362 0 0 0 1.14 2.014l3.155 1.893a.783.783 0 0 0 .837-.02l.395-.263a6.95 6.95 0 0 1 3.869-1.172 4.706 4.706 0 0 1 4.633 3.915h-14.807a5.488 5.488 0 0 1-5.481-5.481zm2.354 6.306a6.992 6.992 0 0 0 2.349.692v.044a3.107 3.107 0 0 0 .422 1.566h-2.771zm3.915.737h15.225l-.82 1.566H126.4a1.568 1.568 0 0 1-1.566-1.566zm21.914-9.4h.011v-.021l1.87-3.571a.6.6 0 0 1 1.071.561l-6.671 12.734a2.342 2.342 0 0 1-2.025 1.267zm15.606-3.253l-8.287 13.121a2.337 2.337 0 0 1-1.986 1.095h-8a3.988 3.988 0 0 0 .338-.532l6.67-12.734a2.153 2.153 0 0 0 .163-1.612h10.738a.432.432 0 0 1 .365.662zm0 0" transform="translate(-117 -241.89)"/>
            </g>
        </g>
    </g>
</svg>
