<svg xmlns="http://www.w3.org/2000/svg" width="42.552" height="42.643" viewBox="0 0 42.552 42.643">
    <path fill="#3d505d" d="M40.284 24.746l-1.655-.509V3.346A3.332 3.332 0 0 0 35.3.015h-.012L25.08.054a6.018 6.018 0 0 0-.991.086l-3.42.587a3.324 3.324 0 0 0-4.421.236.666.666 0 0 0 0 .942l3.768 3.769a.666.666 0 0 0 .942 0 3.327 3.327 0 0 0 .653-3.757l2.7-.465a4.635 4.635 0 0 1 .77-.066l10.2-.039h.019a2 2 0 0 1 2 2v20.48l-11.84-3.643a7.423 7.423 0 0 0-2.19-.329h-4.627v-6.527h3.331a.666.666 0 0 0 0-1.332H13.98a.666.666 0 1 0 0 1.332h3.33v6.527h-5.564a.692.692 0 0 1-.664-.5l-4.6-16.1a3.288 3.288 0 0 0-6.33 1.777l5.307 19.1a3.388 3.388 0 0 0 3.255 2.475h4.721l2.378 10.7h-3.166a3.334 3.334 0 0 0-3.331 3.331v1.332a.666.666 0 0 0 .666.666H27.3a.666.666 0 0 0 .666-.666v-1.328a3.334 3.334 0 0 0-3.331-3.331h-3.163l2.368-10.656a6.114 6.114 0 0 1 1.224.228l13.3 4.092a3.259 3.259 0 1 0 1.917-6.229zM20.407 4.181l-2.666-2.666a2 2 0 0 1 2.665 2.666zm6.231 36.461v.666H10.649v-.666a2 2 0 0 1 2-2h11.99a2 2 0 0 1 2 2zm-6.53-3.331h-2.93L14.81 26.652h7.665zm20.362-7.9a1.911 1.911 0 0 1-1.711.291l-13.3-4.092a7.407 7.407 0 0 0-2.19-.33H8.715a2.052 2.052 0 0 1-1.971-1.5L1.436 4.675A1.955 1.955 0 0 1 5.2 3.616l4.6 16.1a2.031 2.031 0 0 0 1.945 1.466h11.52a6.135 6.135 0 0 1 1.8.27l14.825 4.561a1.927 1.927 0 0 1 .578 3.392z" transform="translate(-.033 .003)"/>
</svg>
