<svg xmlns="http://www.w3.org/2000/svg" width="51.505" height="42.411" viewBox="0 0 51.505 42.411">
    <defs>
        <style>
            .cls-2{fill:#222}
        </style>
    </defs>
    <g id="Group_462" transform="translate(-3.203 -8.557)">
        <path id="Path_1438" fill="#3d505d" d="M34.539 35.983a.832.832 0 0 0-1.042.551 46.519 46.519 0 0 0-2.051 9.613c-.094 1.061-.577 1.689-1.362 1.768a2.865 2.865 0 0 1-2.773-2.192 13.855 13.855 0 0 1-.244-2.121c-.259-3.5-.693-9.361-5.474-9.361S16.379 40.1 16.119 43.6a13.855 13.855 0 0 1-.244 2.121 2.864 2.864 0 0 1-2.775 2.195c-.784-.079-1.268-.707-1.362-1.768C11.282 40.963 9.571 36 7.917 31.192 6.415 26.829 5 22.709 4.9 19.245a8.546 8.546 0 0 1 2.214-6.462 9.063 9.063 0 0 1 6.416-2.559 7.978 7.978 0 0 1 4.205 1.191 7.654 7.654 0 0 0 3.861 1.158 7.654 7.654 0 0 0 3.861-1.158 7.977 7.977 0 0 1 4.205-1.191 9.017 9.017 0 0 1 6.5 2.647.833.833 0 1 0 1.214-1.142 10.71 10.71 0 0 0-7.714-3.172 9.6 9.6 0 0 0-4.984 1.385 6.124 6.124 0 0 1-3.082.964 6.126 6.126 0 0 1-3.082-.964 9.6 9.6 0 0 0-4.984-1.385 10.759 10.759 0 0 0-7.611 3.064 10.144 10.144 0 0 0-2.685 7.671c.105 3.719 1.564 7.956 3.109 12.442 1.622 4.709 3.3 9.579 3.74 14.561a3.257 3.257 0 0 0 2.854 3.28q.179.018.358.018a4.587 4.587 0 0 0 4.178-3.393 13.487 13.487 0 0 0 .309-2.476c.293-3.956.829-7.817 3.812-7.817s3.519 3.862 3.812 7.817a13.487 13.487 0 0 0 .309 2.476 4.587 4.587 0 0 0 4.18 3.391q.179 0 .358-.018a3.257 3.257 0 0 0 2.854-3.28 44.969 44.969 0 0 1 1.984-9.27.833.833 0 0 0-.552-1.042z"/>
        <path id="Path_1439" d="M26.474 14.959a3.218 3.218 0 0 1-2.374 1.075c-.012 0-.023.005-.035.005s-.022-.006-.034-.005a3.2 3.2 0 0 1-2.376-1.075 5.536 5.536 0 0 0-2.637-1.459.834.834 0 0 0-.312 1.638 4.013 4.013 0 0 1 1.867 1.087 4.793 4.793 0 0 0 3.318 1.475h.344a4.8 4.8 0 0 0 3.318-1.474 4.014 4.014 0 0 1 1.867-1.087.834.834 0 1 0-.312-1.638 5.536 5.536 0 0 0-2.635 1.454zm16.371 2.783a7.97 7.97 0 0 0-3.61.86.834.834 0 1 0 .749 1.489 6.442 6.442 0 0 1 6.7.584.834.834 0 0 0 1-1.335 8.005 8.005 0 0 0-4.839-1.598z" class="cls-2" transform="translate(-2.469 -.822)"/>
        <path id="Path_1440" d="M59.5 48.154l-5.369-10.682a.834.834 0 0 0-1.119-.37l-.781.393-.944-1.878a11.73 11.73 0 1 0-1.493.742l.947 1.884-.781.393a.833.833 0 0 0-.37 1.119l5.368 10.682a2.541 2.541 0 1 0 4.542-2.283zm-9.688-13.615a9.724 9.724 0 1 1 4.323-13.056 9.724 9.724 0 0 1-4.323 13.056zm7.809 15.538a.875.875 0 0 1-1.174-.389l-4.994-9.938 1.563-.785L58.01 48.9a.875.875 0 0 1-.389 1.174z" class="cls-2" transform="translate(-5.062 -.869)"/>
    </g>
</svg>
